<svg width="1881" height="874" viewBox="0 0 1881 874" fill="none" xmlns="http://www.w3.org/2000/svg">
<path d="M1.35601e-06 515H66C66 571 108 606 176 606C251 606 295 574 295 522C295 482 275 459 218 445L135 424C51 403 10 359 10 293C10 208 81 154 185 154C287 154 353 210 356 300H289C287 244 248 211 183 211C115 211 77 240 77 292C77 329 103 355 156 368L239 389C323 410 361 449 361 519C361 606 287 663 177 663C68 663 1.35601e-06 605 1.35601e-06 515ZM526.594 55V-2.28882e-05H758.594V55H526.594ZM647.594 663C505.594 663 410.594 561 410.594 409C410.594 258 504.594 154 642.594 154C773.594 154 862.594 247 862.594 384V418H477.594C482.594 536 544.594 604 648.594 604C727.594 604 778.594 570 796.594 506H862.594C836.594 608 761.594 663 647.594 663ZM642.594 213C551.594 213 491.594 273 479.594 368H793.594C793.594 275 733.594 213 642.594 213ZM909.914 395C909.914 263 994.914 154 1136.91 154C1220.91 154 1284.91 193 1315.91 264L1322.91 167H1382.91V636C1382.91 780 1290.91 874 1148.91 874C1024.91 874 937.914 804 918.914 687H987.914C1002.91 765 1062.91 811 1149.91 811C1248.91 811 1314.91 744 1314.91 643V528C1281.91 596 1214.91 636 1131.91 636C993.914 636 909.914 527 909.914 395ZM978.914 394C978.914 493 1039.91 574 1141.91 574C1246.91 574 1308.91 498 1308.91 394C1308.91 291 1248.91 215 1142.91 215C1038.91 215 978.914 296 978.914 394ZM1635.9 663C1532.9 663 1471.9 605 1471.9 520C1471.9 431 1539.9 375 1652.9 366L1812.9 353V337C1812.9 242 1755.9 212 1684.9 212C1600.9 212 1550.9 250 1550.9 315H1487.9C1487.9 217 1567.9 154 1686.9 154C1798.9 154 1880.9 210 1880.9 338V651H1822.9L1813.9 566C1783.9 627 1717.9 663 1635.9 663ZM1651.9 607C1753.9 607 1812.9 536 1812.9 431V405L1669.9 416C1578.9 424 1541.9 464 1541.9 518C1541.9 577 1585.9 607 1651.9 607Z" fill="black"/>
</svg>
